<?xml version="1.0" encoding="utf-8"?>
<!-- Created by sK1 2.0rc4 (https://sk1project.net/) -->
<svg xmlns="http://www.w3.org/2000/svg" height="84.7559055118pt" viewBox="0 0 302.966929134 84.7559055118" width="302.966929134pt" version="1.1" xmlns:xlink="http://www.w3.org/1999/xlink" id="66040676-f92a-11e9-b7b2-ec086b1dacb1">

<g>
	<g>
		<g>
			<path style="fill-rule:evenodd;fill:#000000;" d="M 6.4663,-0.0682 L 26.4544,-0.0682 C 33.1974,-0.0682 38.2547,1.7379 41.6262,5.3503 44.9977,8.9024 46.6834,14.08 46.6834,20.8832 L 46.6834,29.4324 C 46.6834,36.2657 44.9977,41.4734 41.6262,45.0857 38.2547,48.6378 33.1974,50.3838 26.4544,50.3838 L 20.0727,50.3838 20.0727,84.7008 6.4663,84.7008 Z M 26.4544,38.4631 C 28.682,38.4631 30.3377,37.8611 31.3913,36.657 32.5051,35.3927 33.077,33.2855 33.077,30.3956 L 33.077,19.9199 C 33.077,17.0301 32.5051,14.9831 31.3913,13.779 30.3377,12.5147 28.682,11.8524 26.4544,11.8524 L 20.0727,11.8524 20.0727,38.4631 Z" />
			<path style="fill-rule:evenodd;fill:#000000;" d="M 52.7039,-0.0682 L 89.67,-0.0682 89.67,11.8524 66.3103,11.8524 66.3103,34.1284 84.8535,34.1284 84.8535,46.1694 66.3103,46.1694 66.3103,72.7801 89.67,72.7801 89.67,84.7008 52.7039,84.7008 Z" />
			<path style="fill-rule:evenodd;fill:#000000;" d="M 109.5377,11.8524 L 95.3292,11.8524 95.3292,-0.0682 137.2321,-0.0682 137.2321,11.8524 123.1441,11.8524 123.1441,84.7008 109.5377,84.7008 Z" />
			<path style="fill-rule:evenodd;fill:#000000;" d="M 145.1792,-0.0682 L 181.0615,-0.0682 181.0615,11.8524 158.7856,11.8524 158.7856,38.4631 176.2451,38.4631 176.2451,50.5042 158.7856,50.5042 158.7856,84.7008 145.1792,84.7008 Z" />
			<path style="fill-rule:evenodd;fill:#000000;" d="M 191.4168,-0.0682 L 205.0232,-0.0682 205.0232,72.7801 227.2991,72.7801 227.2991,84.7008 191.4168,84.7008 Z" />
			<path style="fill-rule:evenodd;fill:#000000;" d="M 237.6544,-0.0682 L 251.2608,-0.0682 251.2608,84.7008 237.6544,84.7008 Z" />
			<path style="fill-rule:evenodd;fill:#000000;" d="M 272.6939,41.353 L 257.763,-0.0682 272.0918,-0.0682 281.243,27.265 281.4839,27.265 290.8759,-0.0682 303.6394,-0.0682 288.7085,41.353 304.3619,84.7008 290.1534,84.7008 280.2798,55.2002 280.0389,55.2002 269.9245,84.7008 257.0405,84.7008 Z" />
		</g>
	</g>
</g>
</svg>